# xmcd
#
# Track frame offsets:
#	150
#	16183
#	35663
#	56438
#	77685
#	94525
#	115218
#	133038
#	153475
#	173018
#
# Disc length: 2597 seconds
#
# Revision: 1
# Processed by: cddbd v1.5.1PL0 Copyright (c) Steve Scherf et al.
# Submitted via: CDex 1.50Beta5
#
DISCID=720a230a
DTITLE=チューリップ - PRIMARY COLOR
DYEAR=1900
DGENRE=Pop
TTITLE0=わがままお嬢さん
TTITLE1=愛になりたい
TTITLE2=危険なエモーション
TTITLE3=モーニング・スコール
TTITLE4=2015年世界旅行
TTITLE5=CHANGE〜I Love You〜
TTITLE6=「Blue」
TTITLE7=夜明けのベイ・シティ
TTITLE8=夏の女神
TTITLE9=Primary Color
EXTD=
EXTT0=
EXTT1=
EXTT2=
EXTT3=
EXTT4=
EXTT5=
EXTT6=
EXTT7=
EXTT8=
EXTT9=
PLAYORDER=
